<?xml version="1.0" encoding="UTF-8"?>
<svg width="48px" height="48px" viewBox="0 0 48 48" version="1.1" xmlns="http://www.w3.org/2000/svg" xmlns:xlink="http://www.w3.org/1999/xlink">
    <title>购物车</title>
    <g id="页面-1" stroke="none" stroke-width="1" fill="none" fill-rule="evenodd">
        <g id="首页" transform="translate(-652.000000, -64.000000)">
            <g id="购物车" transform="translate(652.000000, 64.000000)">
                <rect id="矩形" x="0" y="0" width="48" height="48"></rect>
                <g id="编组" transform="translate(2.215385, 8.123077)" fill="#FFFFFF" fill-rule="nonzero">
                    <path d="M39.5676697,28.4813995 L14.5303876,28.4813995 C13.8332477,28.4813995 13.2257401,28.0072035 13.076353,27.3255467 L7.50919279,2.96372521 L1.49387121,2.96372521 C0.66726246,2.96372521 0,2.30182656 0,1.48186259 C0,0.661898607 0.667262504,0 1.49387121,0 L8.69433063,0 C9.39147056,0 9.99897818,0.474196027 10.1483653,1.15585282 L15.7155255,25.5176743 L39.5577106,25.5176743 C40.3843193,25.5176743 41.0516919,26.1795729 41.0516919,26.9995369 C41.061541,27.8195009 40.3942785,28.4813995 39.5676697,28.4813995 L39.5676697,28.4813995 Z" id="路径"></path>
                    <path d="M40.4639925,22.5737072 L13.1859035,22.5737072 C12.3592948,22.5737072 11.6920323,21.9118086 11.6920323,21.0918446 C11.6920323,20.2718806 12.3592948,19.609982 13.1859035,19.609982 L39.1892223,19.609982 L41.0814593,7.48834574 L9.73008136,7.48834574 C8.9034726,7.48834574 8.2362101,6.82644709 8.2362101,6.00648311 C8.2362101,5.18651914 8.9034726,4.52462053 9.73008136,4.52462053 L42.8143499,4.52462053 C43.2525522,4.52462053 43.660877,4.71232311 43.9496921,5.03833288 C44.2385071,5.36434265 44.3580169,5.79902235 44.2883029,6.23370206 L41.9379455,21.3190635 C41.8283949,22.0402367 41.200969,22.5737072 40.4639925,22.5737072 L40.4639925,22.5737072 Z" id="路径"></path>
                    <path d="M14.7196113,32.6701312 C14.7196113,34.2032862 15.9725509,35.4461538 17.5181301,35.4461538 C19.0637094,35.4461538 20.3166489,34.2032862 20.3166489,32.6701312 C20.3166489,31.1369762 19.0637094,29.8941086 17.5181301,29.8941086 C15.9725509,29.8941086 14.7196113,31.1369762 14.7196113,32.6701312 L14.7196113,32.6701312 Z" id="路径"></path>
                    <path d="M33.9805913,32.6701312 C33.9805913,34.2032862 35.2335308,35.4461538 36.7791101,35.4461538 C38.3246893,35.4461538 39.5776289,34.2032862 39.5776289,32.6701312 C39.5776289,31.1369762 38.3246893,29.8941085 36.7791101,29.8941085 C35.2335308,29.8941085 33.9805913,31.1369762 33.9805913,32.6701312 Z" id="路径"></path>
                </g>
            </g>
        </g>
    </g>
</svg>