<?xml version="1.0" encoding="UTF-8"?>
<svg width="88px" height="88px" viewBox="0 0 88 88" version="1.1" xmlns="http://www.w3.org/2000/svg" xmlns:xlink="http://www.w3.org/1999/xlink">
    <title>我的副群</title>
    <g id="页面-1" stroke="none" stroke-width="1" fill="none" fill-rule="evenodd">
        <g id="首页" transform="translate(-411.000000, -421.000000)">
            <g id="我的副群" transform="translate(411.000000, 421.000000)">
                <rect id="矩形" fill="#FFFFFF" x="0" y="0" width="88" height="88" rx="16"></rect>
                <g id="编组-4" transform="translate(44.500000, 44.500000) rotate(-315.000000) translate(-44.500000, -44.500000) translate(19.000000, 19.000000)">
                    <path d="M21.8,2.06205331e-13 C22.9045695,2.06002425e-13 23.8,0.8954305 23.8,2 L23.8,21.8 C23.8,22.9045695 22.9045695,23.8 21.8,23.8 L2,23.8 C0.8954305,23.8 2.94589466e-13,22.9045695 2.94898285e-13,21.8 L2.94898285e-13,13.6 L13.6,13.6 L13.6,2.06205331e-13 L21.8,2.06205331e-13 Z M8.2,2.07093509e-13 C9.3045695,2.06890603e-13 10.2,0.8954305 10.2,2 L10.2,8.2 C10.2,9.3045695 9.3045695,10.2 8.2,10.2 L2,10.2 C0.8954305,10.2 2.95033555e-13,9.3045695 2.94898285e-13,8.2 L2.94898285e-13,2 C2.94763014e-13,0.8954305 0.8954305,2.07296415e-13 2,2.07093509e-13 L8.2,2.07093509e-13 Z" id="形状结合" fill="#EF3232"></path>
                    <path d="M21.8,27.2 C22.9045695,27.2 23.8,28.0954305 23.8,29.2 L23.8,49 C23.8,50.1045695 22.9045695,51 21.8,51 L2,51 C0.8954305,51 2.07893163e-13,50.1045695 2.08201981e-13,49 L2.08201981e-13,40.8 L13.6,40.8 L13.6,27.2 L21.8,27.2 Z M8.2,27.2 C9.3045695,27.2 10.2,28.0954305 10.2,29.2 L10.2,35.4 C10.2,36.5045695 9.3045695,37.4 8.2,37.4 L2,37.4 C0.8954305,37.4 2.08337252e-13,36.5045695 2.08201981e-13,35.4 L2.08201981e-13,29.2 C2.08066711e-13,28.0954305 0.8954305,27.2 2,27.2 L8.2,27.2 Z" id="形状结合备份-2" fill="#FB7C2B" transform="translate(11.900000, 39.100000) scale(1, -1) translate(-11.900000, -39.100000) "></path>
                    <path d="M49,3.28435544e-13 C50.1045695,3.28232638e-13 51,0.8954305 51,2 L51,21.8 C51,22.9045695 50.1045695,23.8 49,23.8 L29.2,23.8 C28.0954305,23.8 27.2,22.9045695 27.2,21.8 L27.2,13.6 L40.8,13.6 L40.8,3.28435544e-13 L49,3.28435544e-13 Z M35.4,3.29323723e-13 C36.5045695,3.29120817e-13 37.4,0.8954305 37.4,2 L37.4,8.2 C37.4,9.3045695 36.5045695,10.2 35.4,10.2 L29.2,10.2 C28.0954305,10.2 27.2,9.3045695 27.2,8.2 L27.2,2 C27.2,0.8954305 28.0954305,3.29526629e-13 29.2,3.29323723e-13 L35.4,3.29323723e-13 Z" id="形状结合备份" fill="#FB7C2B" transform="translate(39.100000, 11.900000) scale(-1, 1) translate(-39.100000, -11.900000) "></path>
                    <path d="M49,27.2 C50.1045695,27.2 51,28.0954305 51,29.2 L51,49 C51,50.1045695 50.1045695,51 49,51 L29.2,51 C28.0954305,51 27.2,50.1045695 27.2,49 L27.2,40.8 L40.8,40.8 L40.8,27.2 L49,27.2 Z M35.4,27.2 C36.5045695,27.2 37.4,28.0954305 37.4,29.2 L37.4,35.4 C37.4,36.5045695 36.5045695,37.4 35.4,37.4 L29.2,37.4 C28.0954305,37.4 27.2,36.5045695 27.2,35.4 L27.2,29.2 C27.2,28.0954305 28.0954305,27.2 29.2,27.2 L35.4,27.2 Z" id="形状结合备份-3" fill="#EF3232" transform="translate(39.100000, 39.100000) scale(1, -1) translate(-39.100000, -39.100000) "></path>
                </g>
            </g>
        </g>
    </g>
</svg>