<?xml version="1.0" encoding="UTF-8"?>
<svg width="72px" height="72px" viewBox="0 0 72 72" version="1.1" xmlns="http://www.w3.org/2000/svg" xmlns:xlink="http://www.w3.org/1999/xlink">
    <title>今日大事</title>
    <g id="页面-1" stroke="none" stroke-width="1" fill="none" fill-rule="evenodd">
        <g id="首页" transform="translate(-472.000000, -180.000000)">
            <g id="今日大事" transform="translate(472.000000, 180.000000)">
                <rect id="矩形" x="0" y="0" width="72" height="72"></rect>
                <g id="编组" transform="translate(43.664865, 23.446154)" fill="#FFFFFF" fill-rule="nonzero">
                    <path d="M20.9728196,1.8384682 C22.1406137,3.01561963 22.7966736,4.6121796 22.7966736,6.27692313 L22.7966736,34.523077 C22.7966736,36.1878205 22.1406137,37.7843804 20.9728196,38.9615319 C19.8050255,40.1386833 18.2211568,40.8 16.5696465,40.8 L15.0128898,40.8 C10.7140247,40.8 8.38625653,37.2871573 8.38625653,32.9538462 L8.38625653,0 L16.5696465,0 C18.2211568,0 19.8050255,0.661316762 20.9728196,1.8384682 Z M11.8993763,32.9538462 C11.8995845,34.5449672 13.0809768,35.8841773 14.6486087,36.0703385 L15.0128898,36.0923078 L16.5696465,36.0923078 C17.3215361,36.0923078 17.9661551,35.5510736 18.1014952,34.8055385 L18.1264034,34.523077 L18.1264034,6.27692313 C18.126654,5.51900878 17.5894715,4.86922456 16.8498627,4.73280005 L16.5696465,4.70769231 L11.8993763,4.70769231 L11.8993763,32.9538462 L11.8993763,32.9538462 Z" id="形状"></path>
                    <path d="M18.1264033,38.2343906 C18.1264033,39.8036214 17.348025,40.5882368 15.7912682,40.5882368 L2.33513513,40.5882368 C0.778378378,40.5882368 0,39.8036214 0,38.2343906 C0,36.6651599 0.778378378,36.0923078 2.33513513,36.0923078 L15.7912682,36.0923078 C17.348025,36.0923078 18.1264033,36.6651599 18.1264033,38.2343906 Z" id="路径"></path>
                </g>
                <rect id="矩形" stroke="#FFFFFF" stroke-width="4.5" x="11.25" y="10.25" width="42.5" height="51.5" rx="10"></rect>
                <rect id="矩形备份-8" stroke="#FFFFFF" stroke-width="4.5" x="20.25" y="21.25" width="23.5" height="11.5" rx="3"></rect>
                <rect id="矩形备份-9" fill="#FFFFFF" x="18" y="38" width="28" height="4" rx="2"></rect>
                <rect id="矩形备份-10" fill="#FFFFFF" x="18" y="46" width="16" height="4" rx="2"></rect>
            </g>
        </g>
    </g>
</svg>