<?xml version="1.0" encoding="UTF-8"?>
<svg width="72px" height="72px" viewBox="0 0 72 72" version="1.1" xmlns="http://www.w3.org/2000/svg" xmlns:xlink="http://www.w3.org/1999/xlink">
    <title>PK场</title>
    <g id="页面-1" stroke="none" stroke-width="1" fill="none" fill-rule="evenodd">
        <g id="首页" transform="translate(-208.000000, -180.000000)">
            <g id="PK场" transform="translate(208.000000, 180.000000)">
                <rect id="矩形" x="0" y="0" width="72" height="72"></rect>
                <g id="编组" transform="translate(4.430769, 8.861538)" fill="#FFFFFF" fill-rule="nonzero">
                    <path d="M60.8327997,17.7230769 L48.6481844,2.54769231 C47.4297228,0.996923077 45.4358767,0 43.4420305,0 L18.8512613,0 C16.8574151,0 14.9743382,0.886153846 13.6451074,2.54769231 L1.46049206,17.7230769 C-0.644123327,20.2707692 -0.422584866,24.0369231 1.79279975,26.4738462 L26.4943382,52.6153846 L26.8266459,52.9476923 C28.0451074,54.0553846 29.7066459,54.72 31.3681844,54.72 L31.5897228,54.72 C33.3620305,54.6092308 35.023569,53.9446154 36.2420305,52.6153846 L60.3897228,26.5846154 C62.7158767,24.0369231 62.8266459,20.2707692 60.8327997,17.7230769 Z M57.1774151,23.4830769 L33.0297228,49.5138462 C32.5866459,49.9569231 32.0327997,50.1784615 31.4789536,50.1784615 C30.9251074,50.1784615 30.3712613,49.9569231 29.9281844,49.6246154 L5.11587667,23.3723077 C4.34049206,22.5969231 4.34049206,21.3784615 5.00510744,20.4923077 L17.0789536,5.31692308 C17.5220305,4.76307692 18.1866459,4.43076923 18.8512613,4.43076923 L43.4420305,4.43076923 C44.1066459,4.43076923 44.7712613,4.76307692 45.2143382,5.31692308 L57.3989536,20.4923077 C57.9527997,21.3784615 57.9527997,22.5969231 57.1774151,23.4830769 Z" id="形状"></path>
                    <path d="M42.8881844,22.2646154 L31.3681844,34.56 L19.5158767,22.0430769 C18.6297228,21.1569231 17.3004921,21.0461538 16.303569,21.9323077 C15.4174151,22.7076923 15.4174151,24.1476923 16.1927997,25.0338462 L28.1558767,37.6615385 L28.3774151,37.8830769 C30.1497228,39.5446154 32.9189536,39.4338462 34.6912613,37.6615385 L46.2112613,25.1446154 C46.9866459,24.2584615 46.9866459,22.8184615 46.1004921,22.0430769 C45.103569,21.2676923 43.7743382,21.3784615 42.8881844,22.2646154 Z" id="路径"></path>
                </g>
            </g>
        </g>
    </g>
</svg>