<?xml version="1.0" encoding="UTF-8"?>
<svg width="72px" height="72px" viewBox="0 0 72 72" version="1.1" xmlns="http://www.w3.org/2000/svg" xmlns:xlink="http://www.w3.org/1999/xlink">
    <title>客服中心</title>
    <g id="页面-1" stroke="none" stroke-width="1" fill="none" fill-rule="evenodd">
        <g id="首页" transform="translate(-604.000000, -180.000000)">
            <g id="客服中心" transform="translate(604.000000, 180.000000)">
                <rect id="矩形" x="0" y="0" width="72" height="72"></rect>
                <g id="编组" transform="translate(7.753846, 6.646154)" fill="#FFFFFF" fill-rule="nonzero">
                    <path d="M48.9189955,8.1089592 C43.3558581,2.76126956 36.0500513,-0.12847578 28.2750641,0.0043860742 C13.3618345,0.303325247 0.962070596,12.0283839 0.057222957,26.7096188 C-0.277905798,32.0573085 0.861531969,37.3385672 3.40851051,42.055163 L0.55991609,55.308133 L0.55991609,55.5074258 C0.55991609,56.669967 1.4982766,57.6 2.67122725,57.6 L2.93933025,57.6 L15.7747616,54.0127299 C20.1314354,56.2049505 25.0243152,57.2678454 29.917195,57.101768 C37.4240792,56.8360443 44.4282701,53.6805753 49.6227658,48.2664547 C54.8507744,42.8523342 57.665856,35.7774404 57.5988302,28.3371765 C57.5988302,20.631189 54.4821328,13.4566488 48.9189955,8.1089592 Z M29.8166564,53.1159124 C25.4934955,53.2487743 21.1703345,52.2855258 17.3498667,50.3258135 C17.2493281,50.2593825 17.1823023,50.2261671 17.1152766,50.1929516 L16.4115062,49.7279351 L5.25171866,52.8501887 L7.59761995,41.9887321 L7.59761995,41.2912074 L7.39654269,40.8594063 C7.32951694,40.7265445 7.26249119,40.5936826 7.16195257,40.4608208 L7.06141394,40.261528 L7.02790106,40.2283125 C4.84956415,36.176026 3.84417789,31.6255074 4.14579377,27.008558 C4.91658991,14.3866818 15.5736843,4.28918088 28.4091156,4.02345717 C35.0781779,3.89059532 41.3785985,6.38175509 46.1709397,10.9987045 C50.9632809,15.615654 53.610798,21.7937302 53.6778238,28.4036075 C53.7783624,41.5237156 43.0877551,52.6176805 29.8166564,53.1159124 L29.8166564,53.1159124 Z" id="形状"></path>
                    <path d="M41.244547,30.4629662 C40.2391607,30.4629662 39.4013388,31.1937064 39.2672873,32.1569549 L39.2337744,32.1569549 C38.9321585,37.6375064 34.3744075,41.9223012 28.844783,41.9223012 C23.3151586,41.9223012 18.7574075,37.6375064 18.4557916,32.1569549 C18.4222787,31.09406 17.550944,30.2636734 16.478532,30.2636734 C15.3726071,30.2636734 14.5012723,31.160491 14.5012723,32.2233858 L14.5012723,32.3562476 C14.9034268,39.9293734 21.2373603,45.8749413 28.8782959,45.8749413 C36.3181543,45.8749413 42.5180362,40.2283125 43.1882937,32.954126 C43.2218066,32.7880487 43.2218066,32.5887559 43.2218066,32.4226786 C43.2218066,31.3265683 42.316959,30.4629662 41.244547,30.4629662 L41.244547,30.4629662 Z" id="路径"></path>
                </g>
            </g>
        </g>
    </g>
</svg>