<?xml version="1.0" encoding="UTF-8"?>
<svg width="72px" height="72px" viewBox="0 0 72 72" version="1.1" xmlns="http://www.w3.org/2000/svg" xmlns:xlink="http://www.w3.org/1999/xlink">
    <title>商学院</title>
    <g id="页面-1" stroke="none" stroke-width="1" fill="none" fill-rule="evenodd">
        <g id="首页" transform="translate(-76.000000, -180.000000)">
            <g id="商学院" transform="translate(76.000000, 180.000000)">
                <rect id="矩形" x="0" y="0" width="72" height="72"></rect>
                <g id="编组" transform="translate(9.969231, 5.538462)" fill="#FFFFFF" fill-rule="nonzero">
                    <path d="M24.3692308,43.2 L15.5076923,43.2 C14.2892308,43.2 13.2923077,44.1969231 13.2923077,45.4153846 C13.2923077,46.6338462 14.2892308,47.6307692 15.5076923,47.6307692 L24.3692308,47.6307692 C25.5876923,47.6307692 26.5846154,46.6338462 26.5846154,45.4153846 C26.5846154,44.1969231 25.5876923,43.2 24.3692308,43.2 Z M35.4461538,32.1230769 L15.5076923,32.1230769 C14.2892308,32.1230769 13.2923077,33.12 13.2923077,34.3384615 C13.2923077,35.5569231 14.2892308,36.5538462 15.5076923,36.5538462 L35.4461538,36.5538462 C36.6646154,36.5538462 37.6615385,35.5569231 37.6615385,34.3384615 C37.6615385,33.12 36.6646154,32.1230769 35.4461538,32.1230769 Z M35.4461538,21.0461538 L15.5076923,21.0461538 C14.2892308,21.0461538 13.2923077,22.0430769 13.2923077,23.2615385 C13.2923077,24.48 14.2892308,25.4769231 15.5076923,25.4769231 L35.4461538,25.4769231 C36.6646154,25.4769231 37.6615385,24.48 37.6615385,23.2615385 C37.6615385,22.0430769 36.6646154,21.0461538 35.4461538,21.0461538 Z" id="形状"></path>
                    <path d="M39.8769231,4.43076923 L38.3261538,4.43076923 C37.44,1.88307692 35.0030769,0 32.1230769,0 L18.8307692,0 C15.9507692,0 13.5138462,1.88307692 12.6276923,4.43076923 L11.0769231,4.43076923 C4.98461538,4.43076923 0,9.41538462 0,15.5076923 L0,48.7384615 C0,54.8307692 4.98461538,59.8153846 11.0769231,59.8153846 L39.8769231,59.8153846 C45.9692308,59.8153846 50.9538462,54.8307692 50.9538462,48.7384615 L50.9538462,15.5076923 C50.9538462,9.41538462 45.9692308,4.43076923 39.8769231,4.43076923 Z M18.8307692,4.43076923 L32.1230769,4.43076923 C33.3415385,4.43076923 34.3384615,5.42769231 34.3384615,6.64615385 C34.3384615,7.86461538 33.3415385,8.86153846 32.1230769,8.86153846 L18.8307692,8.86153846 C17.6123077,8.86153846 16.6153846,7.86461538 16.6153846,6.64615385 C16.6153846,5.42769231 17.6123077,4.43076923 18.8307692,4.43076923 Z M46.5230769,48.7384615 C46.5230769,52.3938462 43.5323077,55.3846154 39.8769231,55.3846154 L11.0769231,55.3846154 C7.42153846,55.3846154 4.43076923,52.3938462 4.43076923,48.7384615 L4.43076923,15.5076923 C4.43076923,11.8523077 7.42153846,8.86153846 11.0769231,8.86153846 L12.6276923,8.86153846 C13.5138462,11.4092308 15.9507692,13.2923077 18.8307692,13.2923077 L32.1230769,13.2923077 C35.0030769,13.2923077 37.44,11.4092308 38.3261538,8.86153846 L39.8769231,8.86153846 C43.5323077,8.86153846 46.5230769,11.8523077 46.5230769,15.5076923 L46.5230769,48.7384615 Z" id="形状"></path>
                </g>
            </g>
        </g>
    </g>
</svg>