<?xml version="1.0" encoding="UTF-8"?>
<svg width="72px" height="72px" viewBox="0 0 72 72" version="1.1" xmlns="http://www.w3.org/2000/svg" xmlns:xlink="http://www.w3.org/1999/xlink">
    <title>素材中心</title>
    <g id="页面-1" stroke="none" stroke-width="1" fill="none" fill-rule="evenodd">
        <g id="首页" transform="translate(-339.000000, -180.000000)">
            <g id="素材中心" transform="translate(339.000000, 180.000000)">
                <rect id="矩形" x="0" y="0" width="72" height="72"></rect>
                <g id="编组" transform="translate(5.538462, 4.672162)">
                    <path d="M55.75,31.3316846 L55.75,49.0816846 C55.75,51.221788 54.8825517,53.159288 53.4800776,54.5617621 C52.0776034,55.9642363 50.1401034,56.8316846 48,56.8316846 L48,56.8316846 L14,56.8316846 C11.8598966,56.8316846 9.92239659,55.9642363 8.51992245,54.5617621 C7.1174483,53.159288 6.25,51.221788 6.25,49.0816846 L6.25,49.0816846 L6.25,31.3316846 L55.75,31.3316846 Z" id="矩形" stroke="#FFFFFF" stroke-width="4.5"></path>
                    <path d="M24.9695533,3.31443103 C27.7498586,3.31443103 30.0172394,5.51052192 30.1316874,8.26269543 L30.13622,8.4810977 L30.1351097,13.7399311 L30.2516676,17.6495393 L25.2538882,17.7985391 L25.13622,13.814431 L25.13622,8.4810977 C25.13622,8.40745973 25.0884637,8.34497585 25.0222329,8.32292781 L24.9695533,8.31443103 L18.3028867,8.31443103 C18.2292487,8.31443103 18.1667648,8.36218733 18.1446954,8.43581507 L18.1361783,8.49554482 L18.112855,12.5314531 L13.1129385,12.5025589 L13.13622,8.4810977 C13.13622,5.70079242 15.3323109,3.43341165 18.0844844,3.31896366 L18.3028867,3.31443103 L24.9695533,3.31443103 Z" id="路径" fill="#FFFFFF" fill-rule="nonzero" transform="translate(21.682303, 10.556485) rotate(-30.000000) translate(-21.682303, -10.556485) "></path>
                    <path d="M41.9695533,3.31443103 C44.7498586,3.31443103 47.0172394,5.51052192 47.1316874,8.26269543 L47.13622,8.4810977 L47.1351097,13.7399311 L47.2516676,17.6495393 L42.2538882,17.7985391 L42.13622,13.814431 L42.13622,8.4810977 C42.13622,8.40745973 42.0884637,8.34497585 42.0222329,8.32292781 L41.9695533,8.31443103 L35.3028867,8.31443103 C35.2292487,8.31443103 35.1667648,8.36218733 35.1446954,8.43581507 L35.1361783,8.49554482 L35.112855,12.5314531 L30.1129385,12.5025589 L30.13622,8.4810977 C30.13622,5.70079242 32.3323109,3.43341165 35.0844844,3.31896366 L35.3028867,3.31443103 L41.9695533,3.31443103 Z" id="路径备份" fill="#FFFFFF" fill-rule="nonzero" transform="translate(38.682303, 10.556485) scale(-1, 1) rotate(-30.000000) translate(-38.682303, -10.556485) "></path>
                    <rect id="矩形备份-7" stroke="#FFFFFF" stroke-width="4.5" x="2.25" y="14.3316846" width="57.5" height="17.5" rx="8"></rect>
                    <rect id="矩形" fill="#FFFFFF" x="29" y="15.0816846" width="4" height="40"></rect>
                </g>
            </g>
        </g>
    </g>
</svg>