<?xml version="1.0" encoding="UTF-8"?>
<svg width="88px" height="88px" viewBox="0 0 88 88" version="1.1" xmlns="http://www.w3.org/2000/svg" xmlns:xlink="http://www.w3.org/1999/xlink">
    <title>我的主群</title>
    <g id="页面-1" stroke="none" stroke-width="1" fill="none" fill-rule="evenodd">
        <g id="首页" transform="translate(-58.000000, -421.000000)">
            <g id="我的主群" transform="translate(58.000000, 421.000000)">
                <rect id="矩形" fill="#FFFFFF" x="0" y="0" width="88" height="88" rx="16"></rect>
                <path d="M75.9955276,69.6177701 C77.2929086,70.5177589 78,71.4882357 78,72.5 C78,77.1944204 62.7776815,81 44,81 C25.2223185,81 10,77.1944204 10,72.5 C10,71.4882357 10.7070914,70.5177589 12.0044724,69.6177701 C12.3139704,73.1531962 26.5202919,76 44,76 C61.3196498,76 75.425586,73.2050928 75.9828956,69.7145576 Z" id="形状结合" fill="#FE7E2C"></path>
                <g id="编组" transform="translate(18.000000, 12.000000)" fill="#FE7E2C" fill-rule="nonzero">
                    <path d="M36.8133397,37.9259259 C36.8133397,40.2962963 34.4429694,44.6419753 33.2577842,45.4320988 C32.072599,45.8271605 32.072599,48.5925926 32.072599,52.9382716 L32.072599,57.2839506 C32.072599,58.4691358 31.6775372,58.8641975 31.2824755,58.8641975 L21.0108706,58.8641975 C20.2207471,58.8641975 20.2207471,58.0740741 20.2207471,57.2839506 L20.2207471,52.9382716 C20.2207471,48.9876543 20.2207471,46.2222222 18.6405002,45.4320988 C17.455315,44.6419753 15.4800064,40.691358 15.4800064,37.9259259 C15.4800064,33.9753086 15.0849446,30.0246913 15.4800064,25.6790123 C15.8750681,20.9382716 17.8503767,18.9629629 22.1960557,18.9629629 L30.4923521,18.9629629 C34.8380311,18.9629629 36.8133397,21.3333333 36.8133397,26.0740741 L36.8133397,35.8869896 L36.8133397,37.9259259 Z M25.7516113,15.0123456 C21.800994,15.0123456 18.6405002,11.4567901 18.6405002,7.50617281 C18.6405002,3.55555556 21.8009941,0 25.7516113,0 C29.7022286,0 32.8627224,3.55555556 32.8627224,7.50617281 C32.8627224,11.4567901 29.7022286,15.0123456 25.7516113,15.0123456 Z M9.15901874,21.7283951 C5.20840143,21.7283951 2.04790762,18.1728395 2.04790762,14.2222222 C2.04790762,10.2716049 5.20840143,6.71604938 9.15901874,6.71604938 C13.1096361,6.71604938 16.2701299,10.2716049 16.2701299,14.2222222 C16.2701299,18.1728394 12.7145743,21.7283951 9.15901874,21.7283951 Z M43.1343274,21.7283951 C39.1837101,21.7283951 36.0232162,18.1728395 36.0232162,14.2222222 C36.0232162,10.2716049 39.1837101,6.71604938 43.1343274,6.71604938 C47.0849447,6.71604938 50.2454385,10.2716049 50.2454385,14.2222222 C50.2454385,18.1728394 47.0849447,21.7283951 43.1343274,21.7283951 Z M51.4306237,37.5308642 C51.4306237,28.8395062 49.8503767,25.6790123 45.109636,25.6790123 L38.7886484,25.6790123 L38.7886484,36.345679 C38.7886484,37.9259259 38.7886484,39.9012346 38.3935866,41.4814814 C37.6034632,43.8518518 36.418278,45.8271604 34.8380311,47.4074074 C32.8627224,49.7777778 34.0479076,51.7530864 34.0479076,53.7283951 L34.0479076,59.6543209 L44.3195126,60.0493827 L45.8997595,60.0493827 L45.8997595,59.6543209 C46.2948212,59.2592592 46.2948212,58.8641975 46.2948212,58.4691358 L46.2948212,51.3580247 C46.2948212,50.1728395 45.8997594,48.5925926 47.0849447,47.8024691 C50.6405002,45.4320988 51.8256854,41.4814815 51.4306237,37.5308642 L51.4306237,37.5308642 Z M0.0725989931,37.5308642 C0.0725989931,28.8395062 1.65284593,25.6790123 6.39358662,25.6790123 L12.3195126,25.6790123 L12.3195126,36.345679 C12.3195126,37.9259259 12.3195126,39.9012346 12.7145743,41.4814814 C13.5046977,43.8518518 14.6898829,45.8271604 16.2701299,47.4074074 C18.2454385,49.7777778 17.0602533,51.7530864 17.0602533,53.7283951 L17.0602533,59.6543209 L7.18371012,59.2592593 L5.60346318,59.2592593 L5.60346318,58.8641975 C5.20840143,58.4691358 5.20840143,58.0740741 5.20840143,57.6790123 L5.20840143,51.3580247 C5.20840143,50.1728395 5.60346318,48.5925926 4.41827799,47.8024691 C0.862722431,45.4320988 -0.322462757,41.4814815 0.0725989931,37.5308642 Z" id="形状"></path>
                </g>
            </g>
        </g>
    </g>
</svg>